<?xml version="1.0" encoding="UTF-8" standalone="no"?>
<svg
   xmlns:dc="http://purl.org/dc/elements/1.1/"
   xmlns:cc="http://creativecommons.org/ns#"
   xmlns:rdf="http://www.w3.org/1999/02/22-rdf-syntax-ns#"
   xmlns:svg="http://www.w3.org/2000/svg"
   xmlns="http://www.w3.org/2000/svg"
   xmlns:sodipodi="http://sodipodi.sourceforge.net/DTD/sodipodi-0.dtd"
   xmlns:inkscape="http://www.inkscape.org/namespaces/inkscape"
   version="1.1"
   id="Layer_1"
   x="0px"
   y="0px"
   viewBox="0 0 512 512"
   style="enable-background:new 0 0 512 512;"
   xml:space="preserve"
   width="512px"
   height="512px"
   class=""
   sodipodi:docname="pin.svg"
   inkscape:version="0.92.3 (2405546, 2018-03-11)"><metadata
   id="metadata21"><rdf:RDF><cc:Work
       rdf:about=""><dc:format>image/svg+xml</dc:format><dc:type
         rdf:resource="http://purl.org/dc/dcmitype/StillImage" /></cc:Work></rdf:RDF></metadata><defs
   id="defs19" /><sodipodi:namedview
   pagecolor="#ffffff"
   bordercolor="#666666"
   borderopacity="1"
   objecttolerance="10"
   gridtolerance="10"
   guidetolerance="10"
   inkscape:pageopacity="0"
   inkscape:pageshadow="2"
   inkscape:window-width="1920"
   inkscape:window-height="1017"
   id="namedview17"
   showgrid="false"
   inkscape:zoom="0.4609375"
   inkscape:cx="256"
   inkscape:cy="256"
   inkscape:window-x="-8"
   inkscape:window-y="-8"
   inkscape:window-maximized="1"
   inkscape:current-layer="Layer_1" /><g
   id="g14"
   style="stroke:#ca8e29;stroke-width:8;stroke-miterlimit:4;stroke-dasharray:none;stroke-opacity:1"
   transform="matrix(0.97079532,0,0,0.97079532,10.429627,8.5611422)"><g
     id="g6"
     style="stroke:#ca8e29;stroke-width:8;stroke-miterlimit:4;stroke-dasharray:none;stroke-opacity:1">
	<g
   id="g4"
   style="stroke:#ca8e29;stroke-width:8;stroke-miterlimit:4;stroke-dasharray:none;stroke-opacity:1">
		<path
   d="M 446.812,493.966 379.313,351.185 c -1.347,-2.849 -3.681,-5.032 -6.48,-6.223 l -33.58,-14.949 58.185,-97.518 c 0.139,-0.234 0.27,-0.471 0.395,-0.713 11.568,-22.579 17.434,-46.978 17.434,-72.515 0,-42.959 -16.846,-83.233 -47.435,-113.402 C 337.248,15.703 296.73,-0.588 253.745,0.016 211.997,0.595 172.689,17.364 143.06,47.236 c -29.626,29.87 -46.078,69.313 -46.326,111.066 -0.152,25.515 5.877,50.923 17.431,73.479 0.124,0.241 0.255,0.479 0.394,0.713 l 58.184,97.517 -33.774,15.031 c -2.763,1.229 -4.993,3.408 -6.285,6.142 L 65.187,493.966 c -2.259,4.775 -1.306,10.453 2.388,14.23 3.693,3.777 9.345,4.859 14.172,2.711 l 84.558,-37.646 84.558,37.646 c 3.271,1.455 7.006,1.455 10.277,0 l 84.558,-37.646 84.558,37.646 c 1.652,0.735 3.401,1.093 5.135,1.093 3.331,0 6.608,-1.318 9.037,-3.803 3.691,-3.778 4.643,-9.454 2.384,-14.231 z M 136.473,219.906 c -9.73,-19.132 -14.599,-39.805 -14.47,-61.453 0.428,-72.429 59.686,-132.17 132.094,-133.173 36.166,-0.486 70.263,13.199 95.993,38.576 25.738,25.383 39.911,59.267 39.911,95.412 0,21.359 -4.869,41.757 -14.473,60.638 L 266.85,402.054 c -3.318,5.56 -8.692,6.16 -10.849,6.16 -2.158,0 -7.532,-0.6 -10.849,-6.16 z m 214.361,227.985 c -3.271,-1.455 -7.006,-1.455 -10.277,0 l -84.558,37.646 -84.558,-37.646 c -3.271,-1.455 -7.006,-1.455 -10.277,0 l -58.578,26.08 50.938,-107.749 32.258,-14.356 37.668,63.133 c 6.904,11.572 19.072,18.481 32.547,18.481 13.475,0 25.643,-6.909 32.547,-18.48 l 37.668,-63.133 32.261,14.361 50.935,107.744 z"
   data-original="#000000"
   class="active-path"
   data-old_color="#ca8e29"
   id="path2"
   style="fill:#ca8e29;stroke:#ca8e29;stroke-width:8;stroke-miterlimit:4;stroke-dasharray:none;stroke-opacity:1"
   inkscape:connector-curvature="0" />
	</g>
</g><g
     id="g12"
     style="stroke:#ca8e29;stroke-width:8;stroke-miterlimit:4;stroke-dasharray:none;stroke-opacity:1">
	<g
   id="g10"
   style="stroke:#ca8e29;stroke-width:8;stroke-miterlimit:4;stroke-dasharray:none;stroke-opacity:1">
		<path
   d="m 256.004,101.607 c -31.794,0 -57.659,25.865 -57.659,57.658 0,31.793 25.865,57.658 57.659,57.658 31.793,0.001 57.658,-25.865 57.658,-57.658 0,-31.793 -25.865,-57.658 -57.658,-57.658 z m 0,90.05 c -17.861,10e-4 -32.393,-14.529 -32.393,-32.392 0,-17.861 14.531,-32.392 32.393,-32.392 17.861,0 32.392,14.531 32.392,32.392 0,17.861 -14.531,32.392 -32.392,32.392 z"
   data-original="#000000"
   class="active-path"
   data-old_color="#ca8e29"
   id="path8"
   style="fill:#ca8e29;stroke:#ca8e29;stroke-width:8;stroke-miterlimit:4;stroke-dasharray:none;stroke-opacity:1"
   inkscape:connector-curvature="0" />
	</g>
</g></g> </svg>